<!-- Generated by IcoMoon.io -->
<svg version="1.1" xmlns="http://www.w3.org/2000/svg" width="30" height="30" viewBox="0 0 768 768">
<path d="M640 96v338.752l-109.248 109.248h-146.752c-8.192 0-16.384 3.136-22.624 9.376l-73.376 73.376v-50.752c0-17.664-14.336-32-32-32h-128v-448zM672 32h-576c-17.664 0-32 14.336-32 32v512c0 17.664 14.336 32 32 32h128v96c0 17.664 14.336 32 32 32 8.832 0 16.832-3.584 22.624-9.376l118.624-118.624h146.752c8.832 0 16.832-3.584 22.624-9.376l128-128c6.24-6.24 9.376-14.432 9.376-22.624v-384c0-17.664-14.336-32-32-32zM384 352v-128c0-17.664-14.336-32-32-32s-32 14.336-32 32v128c0 17.664 14.336 32 32 32s32-14.336 32-32zM544 352v-128c0-17.664-14.336-32-32-32s-32 14.336-32 32v128c0 17.664 14.336 32 32 32s32-14.336 32-32z"></path>
</svg>
